# xmcd CD database file
#
# Track frame offsets:
#	150
#	17395
#	34357
#	54155
#	73164
#	91985
#	113043
#	141121
#	160696
#	187680
#	205368
#	222520
#	244272
#	262089
#	282107
#	301953
#	321691
#
# Disc length: 4498 seconds
#
# Revision: 2
# Processed by: cddbd v1.4PL0 Copyright (c) Steve Scherf et al.
# Submitted via: CDex 1.50Beta6
#
DISCID=f8119011
DTITLE=B's - B'z SUPER BEST 1988-2000 Disc-1
DYEAR=2000
DGENRE=Jazz
TTITLE0=dakara sono te wo hanasihite (1st Single 21/09/88)
TTITLE1=kimi no naka de odoritai (2nd Single 21/05/89)
TTITLE2=LADY-GO-ROUND (3rd Single 21/02/90)
TTITLE3=BE THERE (4th Single 25/05/90)
TTITLE4=taiyou no Komachi Angel (5th Single 13/06/90)
TTITLE5=EASY COME, EASY GO! (6th Single 03/10/90)
TTITLE6=itoshii hito yo Good Night... (7th Single 24/10/90)
TTITLE7=LADY NAVIGATION (8th Single 27/03/91)
TTITLE8=ALONE (9th Single 30/10/91)
TTITLE9=BLOWIN' (10th Single 27/05/92)
TTITLE10=ZERO (11th Single 07/10/92)
TTITLE11=koi-gokoro (11th Single 07/10/92)
TTITLE12=ai no mama ni wagamama ni boku ha kimidake wo kizutsukenai (12th Single 17/03/93)
TTITLE13=hadashi no megami (13th Single 02/06/93)
TTITLE14=Don't Leave Me (14th Single 09/02/94)
TTITLE15=MOTEL (15th Single 21/11/94)
TTITLE16=negai (16th Single 31/05/95)
EXTD=WJP-052 YEAR: 2000
EXTT0=
EXTT1=
EXTT2=
EXTT3=
EXTT4=
EXTT5=
EXTT6=
EXTT7=
EXTT8=
EXTT9=
EXTT10=
EXTT11=
EXTT12=
EXTT13=
EXTT14=
EXTT15=
EXTT16=
PLAYORDER=
